<svg width="32" height="32" viewBox="0 0 32 32" fill="none" xmlns="http://www.w3.org/2000/svg">
<path fill-rule="evenodd" clip-rule="evenodd" d="M19.0769 15.6311L27.0769 7.56956C27.4462 7.20033 27.4462 6.64648 27.0769 6.27725L25.8462 4.98495C25.4769 4.61572 24.9231 4.61572 24.5538 4.98495L16.4923 13.0465C16.2462 13.2926 15.8769 13.2926 15.6308 13.0465L7.56923 4.92341C7.2 4.55418 6.64616 4.55418 6.27693 4.92341L4.98462 6.21572C4.61539 6.58495 4.61539 7.13879 4.98462 7.50802L13.0462 15.5696C13.2923 15.8157 13.2923 16.1849 13.0462 16.4311L4.92308 24.5542C4.55385 24.9234 4.55385 25.4773 4.92308 25.8465L6.21539 27.1388C6.58462 27.508 7.13846 27.508 7.50769 27.1388L15.5692 19.0773C15.8154 18.8311 16.1846 18.8311 16.4308 19.0773L24.4923 27.1388C24.8615 27.508 25.4154 27.508 25.7846 27.1388L27.0769 25.8465C27.4462 25.4773 27.4462 24.9234 27.0769 24.5542L19.0769 16.4926C18.8308 16.2465 18.8308 15.8773 19.0769 15.6311Z" fill="#0176D3"/>
</svg>
