<svg width="20" height="20" viewBox="0 0 20 20" fill="none" xmlns="http://www.w3.org/2000/svg">
<path fill-rule="evenodd" clip-rule="evenodd" d="M17.8845 3.84597H13.0768V2.3075C13.0768 1.46135 12.3845 0.769043 11.5384 0.769043H9.23069C8.38454 0.769043 7.69223 1.46135 7.69223 2.3075V3.84597H2.88454C2.57685 3.84597 2.30762 4.1152 2.30762 4.42289V5.57674C2.30762 5.88443 2.57685 6.15366 2.88454 6.15366H17.8845C18.1922 6.15366 18.4615 5.88443 18.4615 5.57674V4.42289C18.4615 4.1152 18.1922 3.84597 17.8845 3.84597ZM9.23069 2.69212C9.23069 2.46135 9.38454 2.3075 9.61531 2.3075H11.1538C11.3845 2.3075 11.5384 2.46135 11.5384 2.69212V3.84597H9.23069V2.69212ZM16.3461 7.69212H4.423C4.11531 7.69212 3.84608 7.96135 3.84608 8.26904V17.3075C3.84608 18.3844 4.69223 19.2306 5.76916 19.2306H14.9999C16.0768 19.2306 16.923 18.3844 16.923 17.3075V8.26904C16.923 7.96135 16.6538 7.69212 16.3461 7.69212ZM9.23069 16.1537C9.23069 16.3844 9.07685 16.5383 8.84608 16.5383H8.07685C7.84608 16.5383 7.69223 16.3844 7.69223 16.1537V10.769C7.69223 10.5383 7.84608 10.3844 8.07685 10.3844H8.84608C9.07685 10.3844 9.23069 10.5383 9.23069 10.769V16.1537ZM13.0768 16.1537C13.0768 16.3844 12.923 16.5383 12.6922 16.5383H11.923C11.6922 16.5383 11.5384 16.3844 11.5384 16.1537V10.769C11.5384 10.5383 11.6922 10.3844 11.923 10.3844H12.6922C12.923 10.3844 13.0768 10.5383 13.0768 10.769V16.1537Z" fill="#032D60"/>
</svg>
