<svg width="20" height="20" viewBox="0 0 20 20" fill="none" xmlns="http://www.w3.org/2000/svg">
<path d="M9.9834 5.04004C10.2666 5.04004 10.4144 5.37674 10.2227 5.58496L9.51562 6.35156C9.33114 6.55128 9.07169 6.66495 8.7998 6.66504H3.97559C3.52703 6.66524 3.16309 7.02893 3.16309 7.47754V15.8525C3.16309 16.3011 3.52703 16.6648 3.97559 16.665H12.3506C12.7993 16.665 13.1631 16.3013 13.1631 15.8525V11.1289C13.1631 10.87 13.2669 10.6214 13.4502 10.4385L14.2334 9.65625C14.4381 9.45191 14.7878 9.5966 14.7881 9.88574V15.8525C14.7881 17.1987 13.6968 18.29 12.3506 18.29H3.97559C2.62956 18.2898 1.53809 17.1986 1.53809 15.8525V7.47754C1.53809 6.13147 2.62957 5.04024 3.97559 5.04004H9.9834ZM17.3594 1.53906C17.877 1.53906 18.2967 1.95897 18.2969 2.47656V8.73926C18.2969 9.0085 18.0788 9.22656 17.8096 9.22656H17.1592C16.8901 9.22633 16.6719 9.00835 16.6719 8.73926V4.31445L9.03027 11.957C8.84001 12.1473 8.53123 12.1471 8.34082 11.957L7.88086 11.4971C7.69048 11.3067 7.69048 10.998 7.88086 10.8076L15.5244 3.16406H11.0977C10.8286 3.16383 10.6104 2.94585 10.6104 2.67676V2.02734C10.6104 1.75825 10.8286 1.53929 11.0977 1.53906H17.3594Z" fill="white"/>
</svg>
