<svg width="20" height="20" viewBox="0 0 20 20" fill="none" xmlns="http://www.w3.org/2000/svg">
<path fill-rule="evenodd" clip-rule="evenodd" d="M3.62599 12.846L7.04907 16.269C7.20292 16.4229 7.43369 16.4229 7.58753 16.269L16.126 7.69212C16.2798 7.53827 16.2798 7.3075 16.126 7.15366L12.7414 3.76904C12.5875 3.6152 12.3568 3.6152 12.2029 3.76904L3.62599 12.346C3.47215 12.4998 3.47215 12.7306 3.62599 12.846ZM13.8568 2.19212C13.7029 2.34597 13.7029 2.57674 13.8568 2.73058L17.2414 6.1152C17.3952 6.26904 17.626 6.26904 17.7798 6.1152L18.7414 5.15366C19.3568 4.57674 19.3568 3.65366 18.7414 3.03827L16.9337 1.23058C16.3183 0.615197 15.3568 0.615197 14.7414 1.23058L13.8568 2.19212ZM0.779841 18.5383C0.702918 18.9229 1.04907 19.269 1.43369 19.1921L5.62599 18.1921C5.77984 18.1537 5.89523 18.0767 5.97215 17.9998L6.04907 17.9229C6.126 17.846 6.16446 17.5767 6.01061 17.4229L2.54907 13.9614C2.39523 13.8075 2.12599 13.846 2.04907 13.9229L1.97215 13.9998C1.85676 14.1152 1.8183 14.2306 1.77984 14.346L0.779841 18.5383Z" fill="#032D60"/>
</svg>
