<svg width="20" height="20" viewBox="0 0 20 20" fill="none" xmlns="http://www.w3.org/2000/svg">
<path fill-rule="evenodd" clip-rule="evenodd" d="M16.9232 0.769531H6.92319C6.07704 0.769531 5.38473 1.46184 5.38473 2.30799V3.07722H14.6155C15.4617 3.07722 16.154 3.76953 16.154 4.61569V15.3849H16.9232C17.7693 15.3849 18.4617 14.6926 18.4617 13.8465V2.30799C18.4617 1.46184 17.7693 0.769531 16.9232 0.769531ZM14.6155 6.15415C14.6155 5.30799 13.9232 4.61568 13.077 4.61568H3.07704C2.23088 4.61568 1.53857 5.30799 1.53857 6.15415V17.6926C1.53857 18.5388 2.23088 19.2311 3.07704 19.2311H13.077C13.9232 19.2311 14.6155 18.5388 14.6155 17.6926V6.15415ZM7.69242 8.84645C7.69242 9.07722 7.53857 9.23107 7.3078 9.23107H4.23088C4.00011 9.23107 3.84627 9.07722 3.84627 8.84645V8.07722C3.84627 7.84645 4.00011 7.69261 4.23088 7.69261H7.3078C7.53857 7.69261 7.69242 7.84645 7.69242 8.07722V8.84645ZM10.7693 15.0003C10.7693 15.2311 10.6155 15.3849 10.3847 15.3849H4.23088C4.00011 15.3849 3.84627 15.2311 3.84627 15.0003V14.2311C3.84627 14.0003 4.00011 13.8465 4.23088 13.8465H10.3847C10.6155 13.8465 10.7693 14.0003 10.7693 14.2311V15.0003ZM12.3078 11.9234C12.3078 12.1541 12.154 12.308 11.9232 12.308H4.23088C4.00011 12.308 3.84627 12.1541 3.84627 11.9234V11.1541C3.84627 10.9234 4.00011 10.7695 4.23088 10.7695H11.9232C12.154 10.7695 12.3078 10.9234 12.3078 11.1541V11.9234Z" fill="white"/>
</svg>
