<svg width="32" height="32" viewBox="0 0 32 32" fill="none" xmlns="http://www.w3.org/2000/svg">
<path fill-rule="evenodd" clip-rule="evenodd" d="M15.9999 1.23047C7.81533 1.23047 1.23071 7.81508 1.23071 15.9997C1.23071 24.1843 7.81533 30.7689 15.9999 30.7689C24.1846 30.7689 30.7692 24.1843 30.7692 15.9997C30.7692 7.81508 24.1846 1.23047 15.9999 1.23047ZM24.2461 12.3074L14.8307 21.8459C14.4615 22.2151 13.8461 22.2151 13.4769 21.8459L8.30764 16.6151C7.93841 16.2459 7.93841 15.6305 8.30764 15.2612L9.66148 13.9074C10.0307 13.5382 10.6461 13.5382 11.0153 13.9074L13.723 16.6766C13.9692 16.9228 14.3999 16.9228 14.6461 16.6766L21.5384 9.53816C21.9076 9.16893 22.523 9.16893 22.8923 9.53816L24.2461 10.892C24.6769 11.2612 24.6769 11.8766 24.2461 12.3074Z" fill="#2E844A"/>
</svg>
